{
  "asset": {
    "version": "2.0",
    "generator": "THREE.GLTFExporter"
  },
  "scenes": [
    {
      "name": "Scene",
      "nodes": [
        0,
        2
      ]
    }
  ],
  "scene": 0,
  "nodes": [
    {
      "translation": [
        0,
        1.0196006711011523e-16,
        0
      ],
      "name": "untitled.glb"
    },
    {
      "rotation": [
        0,
        0.6755901575088501,
        0,
        0.7372773885726929
      ],
      "translation": [
        0.8763277530670166,
        0,
        0.29132044315338135
      ],
      "name": "BezierCircle004",
      "extras": {
        "name": "BezierCircle.004"
      },
      "mesh": 0
    },
    {
      "name": "untitled.glb",
      "children": [
        1
      ]
    }
  ],
  "bufferViews": [
    {
      "buffer": 0,
      "byteOffset": 0,
      "byteLength": 118380,
      "target": 34962,
      "byteStride": 12
    },
    {
      "buffer": 0,
      "byteOffset": 118380,
      "byteLength": 78920,
      "target": 34962,
      "byteStride": 8
    },
    {
      "buffer": 0,
      "byteOffset": 197300,
      "byteLength": 118380,
      "target": 34962,
      "byteStride": 12
    },
    {
      "buffer": 0,
      "byteOffset": 315680,
      "byteLength": 114432,
      "target": 34963
    },
    {
      "buffer": 0,
      "byteOffset": 430112,
      "byteLength": 4
    },
    {
      "buffer": 0,
      "byteOffset": 430116,
      "byteLength": 12
    },
    {
      "buffer": 0,
      "byteOffset": 430128,
      "byteLength": 4
    },
    {
      "buffer": 0,
      "byteOffset": 430132,
      "byteLength": 16
    },
    {
      "buffer": 0,
      "byteOffset": 430148,
      "byteLength": 4
    },
    {
      "buffer": 0,
      "byteOffset": 430152,
      "byteLength": 12
    }
  ],
  "buffers": [
    {
      "byteLength": 430164,
      "uri": "data:application/octet-stream;base64,"
    }
  ],
  "accessors": [
    {
      "bufferView": 0,
      "componentType": 5126,
      "count": 9865,
      "max": [
        1.6479181051254272,
        2.758148193359375,
        -0.10713499784469604
      ],
      "min": [
        0.21426576375961304,
        -2.5244529247283936,
        -1.2781528234481812
      ],
      "type": "VEC3"
    },
    {
      "bufferView": 1,
      "componentType": 5126,
      "count": 9865,
      "max": [
        1,
        1
      ],
      "min": [
        0,
        0
      ],
      "type": "VEC2"
    },
    {
      "bufferView": 2,
      "componentType": 5126,
      "count": 9865,
      "max": [
        0.9998000264167786,
        1,
        1
      ],
      "min": [
        -0.9998999834060669,
        -0.9998999834060669,
        -1
      ],
      "type": "VEC3"
    },
    {
      "bufferView": 3,
      "componentType": 5123,
      "count": 57216,
      "max": [
        9864
      ],
      "min": [
        0
      ],
      "type": "SCALAR"
    },
    {
      "bufferView": 4,
      "componentType": 5126,
      "count": 1,
      "max": [
        0
      ],
      "min": [
        0
      ],
      "type": "SCALAR"
    },
    {
      "bufferView": 5,
      "componentType": 5126,
      "count": 1,
      "max": [
        0.8763277530670166,
        0,
        0.29132044315338135
      ],
      "min": [
        0.8763277530670166,
        0,
        0.29132044315338135
      ],
      "type": "VEC3"
    },
    {
      "bufferView": 6,
      "componentType": 5126,
      "count": 1,
      "max": [
        0
      ],
      "min": [
        0
      ],
      "type": "SCALAR"
    },
    {
      "bufferView": 7,
      "componentType": 5126,
      "count": 1,
      "max": [
        0,
        0.6755901575088501,
        0,
        0.7372773885726929
      ],
      "min": [
        0,
        0.6755901575088501,
        0,
        0.7372773885726929
      ],
      "type": "VEC4"
    },
    {
      "bufferView": 8,
      "componentType": 5126,
      "count": 1,
      "max": [
        0
      ],
      "min": [
        0
      ],
      "type": "SCALAR"
    },
    {
      "bufferView": 9,
      "componentType": 5126,
      "count": 1,
      "max": [
        1,
        1,
        1
      ],
      "min": [
        1,
        1,
        1
      ],
      "type": "VEC3"
    }
  ],
  "materials": [
    {
      "pbrMetallicRoughness": {
        "metallicFactor": 1,
        "roughnessFactor": 0.3590908944606781,
        "baseColorTexture": {
          "index": 0,
          "texCoord": 0
        }
      },
      "doubleSided": true,
      "name": "Material.002"
    }
  ],
  "textures": [
    {
      "sampler": 0,
      "source": 0,
      "name": "metal-1-1"
    }
  ],
  "samplers": [
    {
      "magFilter": 9729,
      "minFilter": 9987,
      "wrapS": 10497,
      "wrapT": 10497
    }
  ],
  "images": [
    {
      "mimeType": "image/jpeg",
      "uri": "data:image/jpeg;base64,"
    }
  ],
  "meshes": [
    {
      "primitives": [
        {
          "mode": 4,
          "attributes": {
            "POSITION": 0,
            "TEXCOORD_0": 1,
            "NORMAL": 2
          },
          "indices": 3,
          "material": 0
        }
      ]
    }
  ],
  "animations": [
    {
      "name": "BezierCircle.004",
      "samplers": [
        {
          "input": 4,
          "output": 5,
          "interpolation": "LINEAR"
        },
        {
          "input": 6,
          "output": 7,
          "interpolation": "LINEAR"
        },
        {
          "input": 8,
          "output": 9,
          "interpolation": "LINEAR"
        }
      ],
      "channels": [
        {
          "sampler": 0,
          "target": {
            "node": 1,
            "path": "translation"
          }
        },
        {
          "sampler": 1,
          "target": {
            "node": 1,
            "path": "rotation"
          }
        },
        {
          "sampler": 2,
          "target": {
            "node": 1,
            "path": "scale"
          }
        }
      ]
    }
  ]
}
