{
  "asset": {
    "version": "2.0",
    "generator": "THREE.GLTFExporter"
  },
  "scenes": [
    {
      "name": "Scene",
      "nodes": [
        3
      ]
    }
  ],
  "scene": 0,
  "nodes": [
    {
      "rotation": [
        -0.4099171757698059,
        0.7906972765922546,
        0.14223285019397736,
        0.43189767003059387
      ],
      "translation": [
        -13.82149821205834,
        4.225967418177814,
        -13.540668799219164
      ],
      "name": "Light",
      "extras": {
        "name": "Light"
      },
      "extensions": {
        "KHR_lights_punctual": {
          "light": 0
        }
      }
    },
    {
      "rotation": [
        -0.4099171757698059,
        0.7906972765922546,
        0.14223285019397736,
        0.43189767003059387
      ],
      "translation": [
        10.486,
        0.289,
        4.57
      ],
      "name": "Light001",
      "extras": {
        "name": "Light.001"
      },
      "extensions": {
        "KHR_lights_punctual": {
          "light": 1
        }
      }
    },
    {
      "rotation": [
        0,
        0.6755901909310863,
        0,
        0.737277352098719
      ],
      "translation": [
        0.8763277530670166,
        0,
        0.29132044315338135
      ],
      "name": "BezierCircle003",
      "extras": {
        "name": "BezierCircle.003"
      },
      "mesh": 0
    },
    {
      "translation": [
        0,
        1.0196006711011523e-16,
        0
      ],
      "name": "untitled.glb",
      "children": [
        0,
        1,
        2
      ]
    }
  ],
  "extensions": {
    "KHR_lights_punctual": {
      "lights": [
        {
          "name": "Light",
          "color": [
            1,
            1,
            1
          ],
          "intensity": 600,
          "type": "point"
        },
        {
          "name": "Light001",
          "color": [
            1,
            1,
            1
          ],
          "intensity": 150,
          "type": "point"
        }
      ]
    }
  },
  "bufferViews": [
    {
      "buffer": 0,
      "byteOffset": 0,
      "byteLength": 118380,
      "target": 34962,
      "byteStride": 12
    },
    {
      "buffer": 0,
      "byteOffset": 118380,
      "byteLength": 78920,
      "target": 34962,
      "byteStride": 8
    },
    {
      "buffer": 0,
      "byteOffset": 197300,
      "byteLength": 118380,
      "target": 34962,
      "byteStride": 12
    },
    {
      "buffer": 0,
      "byteOffset": 315680,
      "byteLength": 114432,
      "target": 34963
    },
    {
      "buffer": 0,
      "byteOffset": 430112,
      "byteLength": 4
    },
    {
      "buffer": 0,
      "byteOffset": 430116,
      "byteLength": 12
    },
    {
      "buffer": 0,
      "byteOffset": 430128,
      "byteLength": 4
    },
    {
      "buffer": 0,
      "byteOffset": 430132,
      "byteLength": 16
    },
    {
      "buffer": 0,
      "byteOffset": 430148,
      "byteLength": 4
    },
    {
      "buffer": 0,
      "byteOffset": 430152,
      "byteLength": 12
    },
    {
      "buffer": 0,
      "byteOffset": 430164,
      "byteLength": 4
    },
    {
      "buffer": 0,
      "byteOffset": 430168,
      "byteLength": 12
    },
    {
      "buffer": 0,
      "byteOffset": 430180,
      "byteLength": 4
    },
    {
      "buffer": 0,
      "byteOffset": 430184,
      "byteLength": 16
    },
    {
      "buffer": 0,
      "byteOffset": 430200,
      "byteLength": 4
    },
    {
      "buffer": 0,
      "byteOffset": 430204,
      "byteLength": 12
    },
    {
      "buffer": 0,
      "byteOffset": 430216,
      "byteLength": 4
    },
    {
      "buffer": 0,
      "byteOffset": 430220,
      "byteLength": 12
    },
    {
      "buffer": 0,
      "byteOffset": 430232,
      "byteLength": 4
    },
    {
      "buffer": 0,
      "byteOffset": 430236,
      "byteLength": 16
    },
    {
      "buffer": 0,
      "byteOffset": 430252,
      "byteLength": 4
    },
    {
      "buffer": 0,
      "byteOffset": 430256,
      "byteLength": 12
    }
  ],
  "buffers": [
    {
      "byteLength": 430268,
      "uri": "data:application/octet-stream;base64,"
    }
  ],
  "accessors": [
    {
      "bufferView": 0,
      "componentType": 5126,
      "count": 9865,
      "max": [
        0.7170053720474243,
        1.626542091369629,
        0.5377631187438965
      ],
      "min": [
        -0.7170053720474243,
        -1.626542091369629,
        -0.5377631187438965
      ],
      "type": "VEC3"
    },
    {
      "bufferView": 1,
      "componentType": 5126,
      "count": 9865,
      "max": [
        1,
        1
      ],
      "min": [
        0,
        0
      ],
      "type": "VEC2"
    },
    {
      "bufferView": 2,
      "componentType": 5126,
      "count": 9865,
      "max": [
        0.9996833801269531,
        0.996790885925293,
        0.9998912215232849
      ],
      "min": [
        -0.997603178024292,
        -0.9968698620796204,
        -0.9999174475669861
      ],
      "type": "VEC3"
    },
    {
      "bufferView": 3,
      "componentType": 5123,
      "count": 57216,
      "max": [
        9864
      ],
      "min": [
        0
      ],
      "type": "SCALAR"
    },
    {
      "bufferView": 4,
      "componentType": 5126,
      "count": 1,
      "max": [
        0
      ],
      "min": [
        0
      ],
      "type": "SCALAR"
    },
    {
      "bufferView": 5,
      "componentType": 5126,
      "count": 1,
      "max": [
        1.9261195659637451,
        1.1983698606491089,
        -0.22727206349372864
      ],
      "min": [
        1.9261195659637451,
        1.1983698606491089,
        -0.22727206349372864
      ],
      "type": "VEC3"
    },
    {
      "bufferView": 6,
      "componentType": 5126,
      "count": 1,
      "max": [
        0
      ],
      "min": [
        0
      ],
      "type": "SCALAR"
    },
    {
      "bufferView": 7,
      "componentType": 5126,
      "count": 1,
      "max": [
        -0.4099172055721283,
        0.7906972765922546,
        0.14223283529281616,
        0.4318976104259491
      ],
      "min": [
        -0.4099172055721283,
        0.7906972765922546,
        0.14223283529281616,
        0.4318976104259491
      ],
      "type": "VEC4"
    },
    {
      "bufferView": 8,
      "componentType": 5126,
      "count": 1,
      "max": [
        0
      ],
      "min": [
        0
      ],
      "type": "SCALAR"
    },
    {
      "bufferView": 9,
      "componentType": 5126,
      "count": 1,
      "max": [
        0.9999999403953552,
        1,
        0.9999999403953552
      ],
      "min": [
        0.9999999403953552,
        1,
        0.9999999403953552
      ],
      "type": "VEC3"
    },
    {
      "bufferView": 10,
      "componentType": 5126,
      "count": 1,
      "max": [
        0
      ],
      "min": [
        0
      ],
      "type": "SCALAR"
    },
    {
      "bufferView": 11,
      "componentType": 5126,
      "count": 1,
      "max": [
        -4.12232780456543,
        0.8690038919448853,
        1.0848915576934814
      ],
      "min": [
        -4.12232780456543,
        0.8690038919448853,
        1.0848915576934814
      ],
      "type": "VEC3"
    },
    {
      "bufferView": 12,
      "componentType": 5126,
      "count": 1,
      "max": [
        0
      ],
      "min": [
        0
      ],
      "type": "SCALAR"
    },
    {
      "bufferView": 13,
      "componentType": 5126,
      "count": 1,
      "max": [
        -0.4099172055721283,
        0.7906972765922546,
        0.14223283529281616,
        0.4318976104259491
      ],
      "min": [
        -0.4099172055721283,
        0.7906972765922546,
        0.14223283529281616,
        0.4318976104259491
      ],
      "type": "VEC4"
    },
    {
      "bufferView": 14,
      "componentType": 5126,
      "count": 1,
      "max": [
        0
      ],
      "min": [
        0
      ],
      "type": "SCALAR"
    },
    {
      "bufferView": 15,
      "componentType": 5126,
      "count": 1,
      "max": [
        0.9999999403953552,
        1,
        0.9999999403953552
      ],
      "min": [
        0.9999999403953552,
        1,
        0.9999999403953552
      ],
      "type": "VEC3"
    },
    {
      "bufferView": 16,
      "componentType": 5126,
      "count": 1,
      "max": [
        0
      ],
      "min": [
        0
      ],
      "type": "SCALAR"
    },
    {
      "bufferView": 17,
      "componentType": 5126,
      "count": 1,
      "max": [
        0.8763277530670166,
        0,
        0.29132044315338135
      ],
      "min": [
        0.8763277530670166,
        0,
        0.29132044315338135
      ],
      "type": "VEC3"
    },
    {
      "bufferView": 18,
      "componentType": 5126,
      "count": 1,
      "max": [
        0
      ],
      "min": [
        0
      ],
      "type": "SCALAR"
    },
    {
      "bufferView": 19,
      "componentType": 5126,
      "count": 1,
      "max": [
        0,
        0.6755901575088501,
        0,
        0.7372773885726929
      ],
      "min": [
        0,
        0.6755901575088501,
        0,
        0.7372773885726929
      ],
      "type": "VEC4"
    },
    {
      "bufferView": 20,
      "componentType": 5126,
      "count": 1,
      "max": [
        0
      ],
      "min": [
        0
      ],
      "type": "SCALAR"
    },
    {
      "bufferView": 21,
      "componentType": 5126,
      "count": 1,
      "max": [
        1,
        1,
        1
      ],
      "min": [
        1,
        1,
        1
      ],
      "type": "VEC3"
    }
  ],
  "materials": [
    {
      "pbrMetallicRoughness": {
        "metallicFactor": 1,
        "roughnessFactor": 0.3,
        "baseColorTexture": {
          "index": 0,
          "texCoord": 0
        }
      },
      "doubleSided": true,
      "name": "Material.002"
    }
  ],
  "textures": [
    {
      "sampler": 0,
      "source": 0,
      "name": "metal-1-1"
    }
  ],
  "samplers": [
    {
      "magFilter": 9729,
      "minFilter": 9987,
      "wrapS": 10497,
      "wrapT": 10497
    }
  ],
  "images": [
    {
      "mimeType": "image/jpeg",
      "uri": "data:image/jpeg;base64,"
    }
  ],
  "meshes": [
    {
      "primitives": [
        {
          "mode": 4,
          "attributes": {
            "POSITION": 0,
            "TEXCOORD_0": 1,
            "NORMAL": 2
          },
          "indices": 3,
          "material": 0
        }
      ]
    }
  ],
  "animations": [
    {
      "name": "Light",
      "samplers": [
        {
          "input": 4,
          "output": 5,
          "interpolation": "LINEAR"
        },
        {
          "input": 6,
          "output": 7,
          "interpolation": "LINEAR"
        },
        {
          "input": 8,
          "output": 9,
          "interpolation": "LINEAR"
        }
      ],
      "channels": [
        {
          "sampler": 0,
          "target": {
            "node": 0,
            "path": "translation"
          }
        },
        {
          "sampler": 1,
          "target": {
            "node": 0,
            "path": "rotation"
          }
        },
        {
          "sampler": 2,
          "target": {
            "node": 0,
            "path": "scale"
          }
        }
      ]
    },
    {
      "name": "Light.001",
      "samplers": [
        {
          "input": 10,
          "output": 11,
          "interpolation": "LINEAR"
        },
        {
          "input": 12,
          "output": 13,
          "interpolation": "LINEAR"
        },
        {
          "input": 14,
          "output": 15,
          "interpolation": "LINEAR"
        }
      ],
      "channels": [
        {
          "sampler": 0,
          "target": {
            "node": 1,
            "path": "translation"
          }
        },
        {
          "sampler": 1,
          "target": {
            "node": 1,
            "path": "rotation"
          }
        },
        {
          "sampler": 2,
          "target": {
            "node": 1,
            "path": "scale"
          }
        }
      ]
    },
    {
      "name": "BezierCircle.003",
      "samplers": [
        {
          "input": 16,
          "output": 17,
          "interpolation": "LINEAR"
        },
        {
          "input": 18,
          "output": 19,
          "interpolation": "LINEAR"
        },
        {
          "input": 20,
          "output": 21,
          "interpolation": "LINEAR"
        }
      ],
      "channels": [
        {
          "sampler": 0,
          "target": {
            "node": 2,
            "path": "translation"
          }
        },
        {
          "sampler": 1,
          "target": {
            "node": 2,
            "path": "rotation"
          }
        },
        {
          "sampler": 2,
          "target": {
            "node": 2,
            "path": "scale"
          }
        }
      ]
    }
  ],
  "extensionsUsed": [
    "KHR_lights_punctual"
  ]
}